<svg height='300px' width='300px'  fill="#000000" xmlns="http://www.w3.org/2000/svg" xmlns:xlink="http://www.w3.org/1999/xlink" version="1.1" x="0px" y="0px" viewBox="0 0 72 72" style="enable-background:new 0 0 72 72;" xml:space="preserve"><style type="text/css">
	.st0{fill:none;}
</style><path d="M54,25.5h-3v-6c0-8.3-6.7-15-15-15s-15,6.7-15,15v6h-3c-3.3,0-6,2.7-6,6v30c0,3.3,2.7,6,6,6h36c3.3,0,6-2.7,6-6v-30  C60,28.2,57.3,25.5,54,25.5z M38,60.4h-4v-4h4V60.4z M42.1,45l-1.8,1.8c-1.4,1.5-2.3,2.6-2.3,5.6h-4v-1c0-2.2,0.9-4.2,2.3-5.6  l2.5-2.5c0.7-0.7,1.2-1.7,1.2-2.8c0-2.2-1.8-4-4-4s-4,1.8-4,4h-4c0-4.4,3.6-8,8-8s8,3.6,8,8C44,42.3,43.2,43.9,42.1,45z M45.3,25.5  H26.7v-6c0-5.1,4.2-9.3,9.3-9.3s9.3,4.2,9.3,9.3V25.5z"></path><rect class="st0" width="72" height="72"></rect></svg>