<svg xmlns="http://www.w3.org/2000/svg" viewBox="0 0 24 24"><path d="M 12 0 C 7.582031 0 4 3.582031 4 8 C 4 12.417969 7.582031 16 12 16 C 16.417969 16 20 12.417969 20 8 C 20 3.582031 16.417969 0 12 0 Z M 6.65625 10.65625 L 17.34375 10.65625 C 16.359375 12.625 14.351563 14 12 14 C 9.648438 14 7.640625 12.625 6.65625 10.65625 Z M 7.375 17.375 C 4.398438 18.15625 2.070313 20.015625 1 24 L 23 24 C 21.929688 20.015625 19.601563 18.15625 16.625 17.375 C 15.246094 18.113281 13.671875 18.53125 12 18.53125 C 10.328125 18.53125 8.753906 18.113281 7.375 17.375 Z"></path></svg>