<svg height='300px' width='300px'  fill="#000000" xmlns="http://www.w3.org/2000/svg" xmlns:xlink="http://www.w3.org/1999/xlink" version="1.1" x="0px" y="0px" viewBox="0 0 72 72" style="enable-background:new 0 0 72 72;" xml:space="preserve"><style type="text/css">
	.st0{fill:none;}
</style><path class="st0" d="M0,0h72v72H0V0z"></path><path d="M54,25.5h-3v-6c0-8.3-6.7-15-15-15s-15,6.7-15,15v6h-3c-3.3,0-6,2.7-6,6v30c0,3.3,2.7,6,6,6h36c3.3,0,6-2.7,6-6v-30  C60,28.2,57.3,25.5,54,25.5z M26.7,19.5c0-5.1,4.2-9.3,9.3-9.3s9.3,4.2,9.3,9.3v6H26.7V19.5z M32.3,55.8L23.5,47l3.4-3.4l5.2,5.2  L45,36l3.4,3.4L32.3,55.8z"></path></svg>